<?xml version="1.0" encoding="utf-8"?>
<!-- Generator: Adobe Illustrator 28.3.0, SVG Export Plug-In . SVG Version: 6.00 Build 0)  -->
<svg version="1.1" id="Слой_1" xmlns="http://www.w3.org/2000/svg" xmlns:xlink="http://www.w3.org/1999/xlink" x="0px" y="0px"
	 viewBox="0 0 100 100" enable-background="new 0 0 100 100" xml:space="preserve">
<path fill="none" stroke="#000000" stroke-width="8" stroke-miterlimit="10" d="M75.93,9.8c-3.96-2.2-9.38-3.01-14.6-3.06
	c-15.75-0.14-30.5,6.15-39.38,14.59S9.35,40.08,8.05,50.26c-0.37,2.91-0.57,5.84-0.21,8.75c0.9,7.42,5.29,14.44,9.63,21.33
	c2.12,3.37,4.37,6.85,8.52,9.3c6.44,3.8,15.94,4.25,24.65,4.19c10.03-0.07,20.95-0.83,28.18-5.34c4.06-2.54,6.45-5.99,8.18-9.47
	c7.02-14.11,4.57-29.4,1.37-44.09c-1.1-5.07-2.29-10.14-4.32-15.09c-1.45-3.53-3.35-7.02-6.27-10.15c-0.31-0.33-0.66-0.67-1.2-0.83
	c-0.78-0.22-1.67,0.02-2.51,0.09c-0.85,0.07-1.96-0.21-1.89-0.76"/>
</svg>
