<?xml version="1.0" encoding="utf-8"?>
<!-- Generator: Adobe Illustrator 28.3.0, SVG Export Plug-In . SVG Version: 6.00 Build 0)  -->
<svg version="1.1" id="Слой_1" xmlns="http://www.w3.org/2000/svg" xmlns:xlink="http://www.w3.org/1999/xlink" x="0px" y="0px"
	 viewBox="0 0 100 100" enable-background="new 0 0 100 100" xml:space="preserve">
<path d="M2.88,99.36C2.76,99,2.44,98.55,2.55,98.29c1.47-3.53,2.89-7.09,4.54-10.55c3.4-7.13,8.2-13.32,13.37-19.23
	C25.3,62.99,30.24,57.56,35.22,52c0.49-0.54,0.54-1.35,0.13-1.95C24.43,33.96,14.16,17.34,0.73,3.07c0.43-1.05,1-0.57,1.54-0.25
	c5.41,3.15,10.29,7.01,14.84,11.3c9.06,8.54,16.61,18.36,23.9,28.38c0.15,0.21,0.3,0.42,0.46,0.63c0.55,0.75,1.62,0.87,2.32,0.26
	c1.67-1.45,3.28-2.91,5.05-4.11c5.02-3.4,10.1-6.73,15.29-9.87C74.2,23.34,83.12,15.87,91.51,7.72c2.35-2.28,4.58-4.69,6.89-7.07
	c0.42,0.26,0.67,0.42,0.92,0.58c0,0.16,0,0.32,0,0.48c-0.17,0.2-0.38,0.38-0.5,0.61c-8.28,15.03-19.64,27.18-34.01,36.56
	c-5.62,3.67-11.09,7.56-15.96,12.22c0,0-0.01,0.01-0.01,0.01c-0.57,0.54-0.65,1.42-0.19,2.06c1.69,2.38,3.32,4.73,5.05,7.01
	c6.81,8.98,13.64,17.93,20.5,26.87c2.74,3.56,6.46,6.05,10.03,8.67c0.61,0.45,1.26,0.85,1.82,1.36c0.24,0.22,0.29,0.64,0.51,1.14
	c-0.48-0.03-0.64,0-0.78-0.05c-7.42-2.32-14.07-5.85-19.62-11.49c-8.7-8.84-17.28-17.75-24.54-27.84c-0.07-0.1-0.14-0.19-0.34-0.44
	c-1.45,1.48-2.81,2.92-4.23,4.3c-5.77,5.58-11.61,11.1-17.35,16.71c-5.06,4.96-9.66,10.32-13.59,16.24
	c-0.87,1.32-1.98,2.48-2.98,3.71C3.04,99.36,2.96,99.36,2.88,99.36z"/>
</svg>
